<mxfile host="app.diagrams.net" modified="2023-02-15T16:26:20.293Z" agent="5.0 (Windows NT 10.0; Win64; x64) AppleWebKit/537.36 (KHTML, like Gecko) Chrome/86.0.4240.198 Safari/537.36" etag="KLtZp6XTbdz3ZaBh4VI7" version="20.8.20" type="github">
  <diagram name="PÃ¡gina-1" id="lvezbziOvVTKFPXictXV">
    <mxGraphModel dx="1707" dy="476" grid="1" gridSize="10" guides="1" tooltips="1" connect="1" arrows="1" fold="1" page="1" pageScale="1" pageWidth="827" pageHeight="1169" math="0" shadow="0">
      <root>
        <mxCell id="0" />
        <mxCell id="1" parent="0" />
        <mxCell id="6l608WstGpifkdP8yGG4-1" value="PACIENTESEG" style="rounded=0;whiteSpace=wrap;html=1;fillColor=#f5f5f5;gradientColor=#b3b3b3;strokeColor=#666666;" vertex="1" parent="1">
          <mxGeometry x="348" y="185" width="120" height="60" as="geometry" />
        </mxCell>
        <mxCell id="6l608WstGpifkdP8yGG4-2" value="PERGUNSTAS" style="rounded=0;whiteSpace=wrap;html=1;fillColor=#f5f5f5;gradientColor=#b3b3b3;strokeColor=#666666;" vertex="1" parent="1">
          <mxGeometry x="74" y="570" width="120" height="60" as="geometry" />
        </mxCell>
        <mxCell id="6l608WstGpifkdP8yGG4-3" value="RESPOSTAS" style="rounded=0;whiteSpace=wrap;html=1;fillColor=#f5f5f5;gradientColor=#b3b3b3;strokeColor=#666666;" vertex="1" parent="1">
          <mxGeometry x="74" y="341.5" width="120" height="60" as="geometry" />
        </mxCell>
        <mxCell id="6l608WstGpifkdP8yGG4-4" value="SUGESTAO DE MELHORIA" style="rounded=0;whiteSpace=wrap;html=1;fillColor=#f5f5f5;gradientColor=#b3b3b3;strokeColor=#666666;" vertex="1" parent="1">
          <mxGeometry x="610" y="400" width="120" height="60" as="geometry" />
        </mxCell>
        <mxCell id="6l608WstGpifkdP8yGG4-5" value="&lt;font style=&quot;font-size: 25px;&quot;&gt;DER MODELO CONCEITUAL PACIENTE SEGURO&lt;/font&gt;" style="text;html=1;strokeColor=none;fillColor=none;align=center;verticalAlign=middle;whiteSpace=wrap;rounded=0;" vertex="1" parent="1">
          <mxGeometry x="10" y="30" width="800" height="30" as="geometry" />
        </mxCell>
        <mxCell id="6l608WstGpifkdP8yGG4-7" value="&lt;u&gt;cd_pacienteseg&lt;/u&gt;" style="ellipse;whiteSpace=wrap;html=1;fontSize=12;" vertex="1" parent="1">
          <mxGeometry x="100" y="145" width="100" height="40" as="geometry" />
        </mxCell>
        <mxCell id="6l608WstGpifkdP8yGG4-8" value="sexo" style="ellipse;whiteSpace=wrap;html=1;fontSize=12;" vertex="1" parent="1">
          <mxGeometry x="200" y="115" width="56" height="30" as="geometry" />
        </mxCell>
        <mxCell id="6l608WstGpifkdP8yGG4-9" value="&lt;u&gt;cd_setor&lt;/u&gt;" style="ellipse;whiteSpace=wrap;html=1;fontSize=12;" vertex="1" parent="1">
          <mxGeometry x="280" y="95" width="80" height="30" as="geometry" />
        </mxCell>
        <mxCell id="6l608WstGpifkdP8yGG4-10" value="idade" style="ellipse;whiteSpace=wrap;html=1;fontSize=12;" vertex="1" parent="1">
          <mxGeometry x="380" y="80" width="56" height="30" as="geometry" />
        </mxCell>
        <mxCell id="6l608WstGpifkdP8yGG4-11" value="dt_cadastro" style="ellipse;whiteSpace=wrap;html=1;fontSize=12;" vertex="1" parent="1">
          <mxGeometry x="460" y="95" width="70" height="35" as="geometry" />
        </mxCell>
        <mxCell id="6l608WstGpifkdP8yGG4-12" value="ds_leito" style="ellipse;whiteSpace=wrap;html=1;fontSize=12;" vertex="1" parent="1">
          <mxGeometry x="550" y="115" width="70" height="35" as="geometry" />
        </mxCell>
        <mxCell id="6l608WstGpifkdP8yGG4-13" value="&lt;u&gt;nr_atendimento&lt;/u&gt;" style="ellipse;whiteSpace=wrap;html=1;fontSize=12;" vertex="1" parent="1">
          <mxGeometry x="630" y="145" width="110" height="35" as="geometry" />
        </mxCell>
        <mxCell id="6l608WstGpifkdP8yGG4-14" value="" style="endArrow=none;html=1;rounded=0;fontSize=12;entryX=0.045;entryY=0.771;entryDx=0;entryDy=0;entryPerimeter=0;exitX=1;exitY=0.75;exitDx=0;exitDy=0;" edge="1" parent="1" source="6l608WstGpifkdP8yGG4-1" target="6l608WstGpifkdP8yGG4-13">
          <mxGeometry width="50" height="50" relative="1" as="geometry">
            <mxPoint x="450" y="225" as="sourcePoint" />
            <mxPoint x="500" y="175" as="targetPoint" />
          </mxGeometry>
        </mxCell>
        <mxCell id="6l608WstGpifkdP8yGG4-15" value="" style="endArrow=none;html=1;rounded=0;fontSize=12;entryX=0;entryY=1;entryDx=0;entryDy=0;" edge="1" parent="1" target="6l608WstGpifkdP8yGG4-12">
          <mxGeometry width="50" height="50" relative="1" as="geometry">
            <mxPoint x="470" y="205" as="sourcePoint" />
            <mxPoint x="500" y="175" as="targetPoint" />
          </mxGeometry>
        </mxCell>
        <mxCell id="6l608WstGpifkdP8yGG4-16" value="" style="endArrow=none;html=1;rounded=0;fontSize=12;entryX=0.286;entryY=0.857;entryDx=0;entryDy=0;entryPerimeter=0;" edge="1" parent="1" source="6l608WstGpifkdP8yGG4-1" target="6l608WstGpifkdP8yGG4-11">
          <mxGeometry width="50" height="50" relative="1" as="geometry">
            <mxPoint x="450" y="225" as="sourcePoint" />
            <mxPoint x="500" y="175" as="targetPoint" />
          </mxGeometry>
        </mxCell>
        <mxCell id="6l608WstGpifkdP8yGG4-17" value="" style="endArrow=none;html=1;rounded=0;fontSize=12;entryX=0.5;entryY=1;entryDx=0;entryDy=0;" edge="1" parent="1" source="6l608WstGpifkdP8yGG4-1" target="6l608WstGpifkdP8yGG4-10">
          <mxGeometry width="50" height="50" relative="1" as="geometry">
            <mxPoint x="450" y="225" as="sourcePoint" />
            <mxPoint x="500" y="175" as="targetPoint" />
          </mxGeometry>
        </mxCell>
        <mxCell id="6l608WstGpifkdP8yGG4-18" value="" style="endArrow=none;html=1;rounded=0;fontSize=12;entryX=0.5;entryY=1;entryDx=0;entryDy=0;" edge="1" parent="1" source="6l608WstGpifkdP8yGG4-1" target="6l608WstGpifkdP8yGG4-9">
          <mxGeometry width="50" height="50" relative="1" as="geometry">
            <mxPoint x="450" y="225" as="sourcePoint" />
            <mxPoint x="500" y="175" as="targetPoint" />
          </mxGeometry>
        </mxCell>
        <mxCell id="6l608WstGpifkdP8yGG4-19" value="" style="endArrow=none;html=1;rounded=0;fontSize=12;entryX=1;entryY=1;entryDx=0;entryDy=0;exitX=0;exitY=0.25;exitDx=0;exitDy=0;" edge="1" parent="1" source="6l608WstGpifkdP8yGG4-1" target="6l608WstGpifkdP8yGG4-8">
          <mxGeometry width="50" height="50" relative="1" as="geometry">
            <mxPoint x="450" y="225" as="sourcePoint" />
            <mxPoint x="500" y="175" as="targetPoint" />
          </mxGeometry>
        </mxCell>
        <mxCell id="6l608WstGpifkdP8yGG4-20" value="" style="endArrow=none;html=1;rounded=0;fontSize=12;entryX=1;entryY=1;entryDx=0;entryDy=0;exitX=0;exitY=0.65;exitDx=0;exitDy=0;exitPerimeter=0;" edge="1" parent="1" source="6l608WstGpifkdP8yGG4-1" target="6l608WstGpifkdP8yGG4-7">
          <mxGeometry width="50" height="50" relative="1" as="geometry">
            <mxPoint x="450" y="225" as="sourcePoint" />
            <mxPoint x="500" y="175" as="targetPoint" />
          </mxGeometry>
        </mxCell>
        <mxCell id="6l608WstGpifkdP8yGG4-21" value="&lt;u&gt;cd_pergunta&lt;/u&gt;" style="ellipse;whiteSpace=wrap;html=1;fontSize=12;" vertex="1" parent="1">
          <mxGeometry x="-6" y="690" width="80" height="40" as="geometry" />
        </mxCell>
        <mxCell id="6l608WstGpifkdP8yGG4-22" value="ds_label" style="ellipse;whiteSpace=wrap;html=1;fontSize=12;" vertex="1" parent="1">
          <mxGeometry x="64" y="670" width="56" height="30" as="geometry" />
        </mxCell>
        <mxCell id="6l608WstGpifkdP8yGG4-23" value="sn_ativo" style="ellipse;whiteSpace=wrap;html=1;fontSize=12;" vertex="1" parent="1">
          <mxGeometry x="106" y="710" width="56" height="30" as="geometry" />
        </mxCell>
        <mxCell id="6l608WstGpifkdP8yGG4-24" value="ordem" style="ellipse;whiteSpace=wrap;html=1;fontSize=12;" vertex="1" parent="1">
          <mxGeometry x="144" y="680" width="56" height="30" as="geometry" />
        </mxCell>
        <mxCell id="6l608WstGpifkdP8yGG4-25" value="tipo" style="ellipse;whiteSpace=wrap;html=1;fontSize=12;" vertex="1" parent="1">
          <mxGeometry x="200" y="700" width="56" height="30" as="geometry" />
        </mxCell>
        <mxCell id="6l608WstGpifkdP8yGG4-27" value="" style="endArrow=none;html=1;rounded=0;fontSize=12;entryX=0;entryY=1;entryDx=0;entryDy=0;exitX=0.5;exitY=0;exitDx=0;exitDy=0;" edge="1" parent="1" source="6l608WstGpifkdP8yGG4-21" target="6l608WstGpifkdP8yGG4-2">
          <mxGeometry width="50" height="50" relative="1" as="geometry">
            <mxPoint x="390" y="730" as="sourcePoint" />
            <mxPoint x="440" y="680" as="targetPoint" />
          </mxGeometry>
        </mxCell>
        <mxCell id="6l608WstGpifkdP8yGG4-28" value="" style="endArrow=none;html=1;rounded=0;fontSize=12;entryX=0.25;entryY=1;entryDx=0;entryDy=0;exitX=0.5;exitY=0;exitDx=0;exitDy=0;" edge="1" parent="1" source="6l608WstGpifkdP8yGG4-22" target="6l608WstGpifkdP8yGG4-2">
          <mxGeometry width="50" height="50" relative="1" as="geometry">
            <mxPoint x="390" y="730" as="sourcePoint" />
            <mxPoint x="440" y="680" as="targetPoint" />
          </mxGeometry>
        </mxCell>
        <mxCell id="6l608WstGpifkdP8yGG4-30" value="" style="endArrow=none;html=1;rounded=0;fontSize=12;entryX=0.5;entryY=1;entryDx=0;entryDy=0;exitX=0.5;exitY=0;exitDx=0;exitDy=0;" edge="1" parent="1" source="6l608WstGpifkdP8yGG4-23" target="6l608WstGpifkdP8yGG4-2">
          <mxGeometry width="50" height="50" relative="1" as="geometry">
            <mxPoint x="390" y="730" as="sourcePoint" />
            <mxPoint x="440" y="680" as="targetPoint" />
          </mxGeometry>
        </mxCell>
        <mxCell id="6l608WstGpifkdP8yGG4-31" value="" style="endArrow=none;html=1;rounded=0;fontSize=12;entryX=0.75;entryY=1;entryDx=0;entryDy=0;" edge="1" parent="1" source="6l608WstGpifkdP8yGG4-24" target="6l608WstGpifkdP8yGG4-2">
          <mxGeometry width="50" height="50" relative="1" as="geometry">
            <mxPoint x="390" y="730" as="sourcePoint" />
            <mxPoint x="440" y="680" as="targetPoint" />
          </mxGeometry>
        </mxCell>
        <mxCell id="6l608WstGpifkdP8yGG4-32" value="" style="endArrow=none;html=1;rounded=0;fontSize=12;entryX=1;entryY=1;entryDx=0;entryDy=0;exitX=0.268;exitY=0;exitDx=0;exitDy=0;exitPerimeter=0;" edge="1" parent="1" source="6l608WstGpifkdP8yGG4-25" target="6l608WstGpifkdP8yGG4-2">
          <mxGeometry width="50" height="50" relative="1" as="geometry">
            <mxPoint x="390" y="730" as="sourcePoint" />
            <mxPoint x="440" y="680" as="targetPoint" />
          </mxGeometry>
        </mxCell>
        <mxCell id="6l608WstGpifkdP8yGG4-33" value="&lt;u&gt;cd_pergunta&lt;/u&gt;" style="ellipse;whiteSpace=wrap;html=1;fontSize=12;" vertex="1" parent="1">
          <mxGeometry x="120" y="266.5" width="80" height="40" as="geometry" />
        </mxCell>
        <mxCell id="6l608WstGpifkdP8yGG4-34" value="&lt;u&gt;cd_pacienteseg&lt;/u&gt;" style="ellipse;whiteSpace=wrap;html=1;fontSize=12;" vertex="1" parent="1">
          <mxGeometry x="74" y="220" width="100" height="40" as="geometry" />
        </mxCell>
        <mxCell id="6l608WstGpifkdP8yGG4-35" value="&lt;u&gt;cd_resposta&lt;/u&gt;" style="ellipse;whiteSpace=wrap;html=1;fontSize=12;" vertex="1" parent="1">
          <mxGeometry x="20" y="266.5" width="80" height="40" as="geometry" />
        </mxCell>
        <mxCell id="6l608WstGpifkdP8yGG4-36" value="resposta" style="ellipse;whiteSpace=wrap;html=1;fontSize=12;" vertex="1" parent="1">
          <mxGeometry x="200" y="245" width="70" height="35" as="geometry" />
        </mxCell>
        <mxCell id="6l608WstGpifkdP8yGG4-37" value="" style="endArrow=none;html=1;rounded=0;fontSize=12;exitX=0.25;exitY=0;exitDx=0;exitDy=0;" edge="1" parent="1" source="6l608WstGpifkdP8yGG4-3">
          <mxGeometry width="50" height="50" relative="1" as="geometry">
            <mxPoint x="50" y="340" as="sourcePoint" />
            <mxPoint x="40" y="290" as="targetPoint" />
          </mxGeometry>
        </mxCell>
        <mxCell id="6l608WstGpifkdP8yGG4-38" value="" style="endArrow=none;html=1;rounded=0;fontSize=12;exitX=0.5;exitY=0;exitDx=0;exitDy=0;" edge="1" parent="1" source="6l608WstGpifkdP8yGG4-3" target="6l608WstGpifkdP8yGG4-33">
          <mxGeometry width="50" height="50" relative="1" as="geometry">
            <mxPoint x="79" y="340" as="sourcePoint" />
            <mxPoint x="110" y="270" as="targetPoint" />
          </mxGeometry>
        </mxCell>
        <mxCell id="6l608WstGpifkdP8yGG4-39" value="" style="endArrow=none;html=1;rounded=0;fontSize=12;entryX=0.37;entryY=0.975;entryDx=0;entryDy=0;entryPerimeter=0;" edge="1" parent="1" target="6l608WstGpifkdP8yGG4-34">
          <mxGeometry width="50" height="50" relative="1" as="geometry">
            <mxPoint x="114" y="340" as="sourcePoint" />
            <mxPoint x="164" y="290" as="targetPoint" />
          </mxGeometry>
        </mxCell>
        <mxCell id="6l608WstGpifkdP8yGG4-40" value="" style="endArrow=none;html=1;rounded=0;fontSize=12;exitX=1;exitY=0;exitDx=0;exitDy=0;entryX=0.271;entryY=1;entryDx=0;entryDy=0;entryPerimeter=0;" edge="1" parent="1" source="6l608WstGpifkdP8yGG4-3" target="6l608WstGpifkdP8yGG4-36">
          <mxGeometry width="50" height="50" relative="1" as="geometry">
            <mxPoint x="203" y="340" as="sourcePoint" />
            <mxPoint x="253" y="290" as="targetPoint" />
          </mxGeometry>
        </mxCell>
        <mxCell id="6l608WstGpifkdP8yGG4-41" value="TEM&amp;nbsp;" style="html=1;whiteSpace=wrap;aspect=fixed;shape=isoRectangle;fontSize=12;fillColor=#ffcd28;gradientColor=#ffa500;strokeColor=#d79b00;" vertex="1" parent="1">
          <mxGeometry x="92.67" y="470" width="83.33" height="50" as="geometry" />
        </mxCell>
        <mxCell id="6l608WstGpifkdP8yGG4-42" value="RESPONDE" style="html=1;whiteSpace=wrap;aspect=fixed;shape=isoRectangle;fontSize=12;fillColor=#ffcd28;gradientColor=#ffa500;strokeColor=#d79b00;" vertex="1" parent="1">
          <mxGeometry x="271" y="338.5" width="105" height="63" as="geometry" />
        </mxCell>
        <mxCell id="6l608WstGpifkdP8yGG4-43" value="DÃ UMA SUGESTÃO" style="html=1;whiteSpace=wrap;aspect=fixed;shape=isoRectangle;fontSize=12;fillColor=#ffcd28;gradientColor=#ffa500;strokeColor=#d79b00;" vertex="1" parent="1">
          <mxGeometry x="390" y="390" width="108.33" height="65" as="geometry" />
        </mxCell>
        <mxCell id="6l608WstGpifkdP8yGG4-44" value="" style="endArrow=none;html=1;rounded=0;fontSize=12;entryX=0.5;entryY=1;entryDx=0;entryDy=0;exitX=0.492;exitY=0.02;exitDx=0;exitDy=0;exitPerimeter=0;" edge="1" parent="1" source="6l608WstGpifkdP8yGG4-41" target="6l608WstGpifkdP8yGG4-3">
          <mxGeometry width="50" height="50" relative="1" as="geometry">
            <mxPoint x="390" y="460" as="sourcePoint" />
            <mxPoint x="440" y="410" as="targetPoint" />
          </mxGeometry>
        </mxCell>
        <mxCell id="6l608WstGpifkdP8yGG4-45" value="" style="endArrow=none;html=1;rounded=0;fontSize=12;exitX=0.48;exitY=1;exitDx=0;exitDy=0;exitPerimeter=0;entryX=0.5;entryY=0;entryDx=0;entryDy=0;" edge="1" parent="1" source="6l608WstGpifkdP8yGG4-41" target="6l608WstGpifkdP8yGG4-2">
          <mxGeometry width="50" height="50" relative="1" as="geometry">
            <mxPoint x="390" y="460" as="sourcePoint" />
            <mxPoint x="440" y="410" as="targetPoint" />
          </mxGeometry>
        </mxCell>
        <mxCell id="6l608WstGpifkdP8yGG4-46" value="" style="endArrow=none;html=1;rounded=0;fontSize=12;exitX=1.01;exitY=0.492;exitDx=0;exitDy=0;exitPerimeter=0;entryX=0.25;entryY=1;entryDx=0;entryDy=0;" edge="1" parent="1" source="6l608WstGpifkdP8yGG4-42" target="6l608WstGpifkdP8yGG4-1">
          <mxGeometry width="50" height="50" relative="1" as="geometry">
            <mxPoint x="390" y="460" as="sourcePoint" />
            <mxPoint x="377" y="250" as="targetPoint" />
          </mxGeometry>
        </mxCell>
        <mxCell id="6l608WstGpifkdP8yGG4-47" value="" style="endArrow=none;html=1;rounded=0;fontSize=12;entryX=0.029;entryY=0.492;entryDx=0;entryDy=0;entryPerimeter=0;exitX=1;exitY=0.5;exitDx=0;exitDy=0;" edge="1" parent="1" source="6l608WstGpifkdP8yGG4-3" target="6l608WstGpifkdP8yGG4-42">
          <mxGeometry width="50" height="50" relative="1" as="geometry">
            <mxPoint x="390" y="460" as="sourcePoint" />
            <mxPoint x="440" y="410" as="targetPoint" />
          </mxGeometry>
        </mxCell>
        <mxCell id="6l608WstGpifkdP8yGG4-48" value="" style="endArrow=none;html=1;rounded=0;fontSize=12;entryX=0.75;entryY=1;entryDx=0;entryDy=0;exitX=0.489;exitY=0.062;exitDx=0;exitDy=0;exitPerimeter=0;" edge="1" parent="1" source="6l608WstGpifkdP8yGG4-43" target="6l608WstGpifkdP8yGG4-1">
          <mxGeometry width="50" height="50" relative="1" as="geometry">
            <mxPoint x="530" y="300" as="sourcePoint" />
            <mxPoint x="440" y="410" as="targetPoint" />
          </mxGeometry>
        </mxCell>
        <mxCell id="6l608WstGpifkdP8yGG4-49" value="" style="endArrow=none;html=1;rounded=0;fontSize=12;exitX=-0.017;exitY=0.367;exitDx=0;exitDy=0;exitPerimeter=0;" edge="1" parent="1" source="6l608WstGpifkdP8yGG4-4">
          <mxGeometry width="50" height="50" relative="1" as="geometry">
            <mxPoint x="630" y="400" as="sourcePoint" />
            <mxPoint x="500" y="423" as="targetPoint" />
          </mxGeometry>
        </mxCell>
        <mxCell id="6l608WstGpifkdP8yGG4-50" value="&lt;u&gt;cd_paciente&lt;/u&gt;" style="ellipse;whiteSpace=wrap;html=1;fontSize=12;" vertex="1" parent="1">
          <mxGeometry x="520" y="304" width="80" height="40" as="geometry" />
        </mxCell>
        <mxCell id="6l608WstGpifkdP8yGG4-51" value="&lt;u&gt;cd_pergunta&lt;/u&gt;" style="ellipse;whiteSpace=wrap;html=1;fontSize=12;" vertex="1" parent="1">
          <mxGeometry x="600" y="328.5" width="80" height="40" as="geometry" />
        </mxCell>
        <mxCell id="6l608WstGpifkdP8yGG4-52" value="1" style="text;html=1;strokeColor=none;fillColor=none;align=center;verticalAlign=middle;whiteSpace=wrap;rounded=0;fontSize=12;" vertex="1" parent="1">
          <mxGeometry x="120" y="450" width="40" height="20" as="geometry" />
        </mxCell>
        <mxCell id="6l608WstGpifkdP8yGG4-53" value="N" style="text;html=1;strokeColor=none;fillColor=none;align=center;verticalAlign=middle;whiteSpace=wrap;rounded=0;fontSize=12;" vertex="1" parent="1">
          <mxGeometry x="120" y="520" width="40" height="20" as="geometry" />
        </mxCell>
        <mxCell id="6l608WstGpifkdP8yGG4-54" value="1" style="text;html=1;strokeColor=none;fillColor=none;align=center;verticalAlign=middle;whiteSpace=wrap;rounded=0;fontSize=12;" vertex="1" parent="1">
          <mxGeometry x="240" y="350" width="40" height="20" as="geometry" />
        </mxCell>
        <mxCell id="6l608WstGpifkdP8yGG4-55" value="N" style="text;html=1;strokeColor=none;fillColor=none;align=center;verticalAlign=middle;whiteSpace=wrap;rounded=0;fontSize=12;" vertex="1" parent="1">
          <mxGeometry x="350" y="338.5" width="40" height="20" as="geometry" />
        </mxCell>
        <mxCell id="6l608WstGpifkdP8yGG4-57" value="1" style="text;html=1;strokeColor=none;fillColor=none;align=center;verticalAlign=middle;whiteSpace=wrap;rounded=0;fontSize=12;" vertex="1" parent="1">
          <mxGeometry x="428" y="361.5" width="40" height="20" as="geometry" />
        </mxCell>
        <mxCell id="6l608WstGpifkdP8yGG4-58" value="1" style="text;html=1;strokeColor=none;fillColor=none;align=center;verticalAlign=middle;whiteSpace=wrap;rounded=0;fontSize=12;" vertex="1" parent="1">
          <mxGeometry x="490" y="400" width="40" height="20" as="geometry" />
        </mxCell>
        <mxCell id="6l608WstGpifkdP8yGG4-59" value="&lt;u&gt;cd_sugestao&lt;/u&gt;" style="ellipse;whiteSpace=wrap;html=1;fontSize=12;" vertex="1" parent="1">
          <mxGeometry x="650" y="288.5" width="80" height="40" as="geometry" />
        </mxCell>
        <mxCell id="6l608WstGpifkdP8yGG4-60" value="ds_sugestao" style="ellipse;whiteSpace=wrap;html=1;fontSize=12;" vertex="1" parent="1">
          <mxGeometry x="710" y="326.5" width="80" height="35" as="geometry" />
        </mxCell>
        <mxCell id="6l608WstGpifkdP8yGG4-61" value="" style="endArrow=none;html=1;rounded=0;fontSize=12;exitX=0.5;exitY=1;exitDx=0;exitDy=0;entryX=0.25;entryY=0;entryDx=0;entryDy=0;" edge="1" parent="1" source="6l608WstGpifkdP8yGG4-50" target="6l608WstGpifkdP8yGG4-4">
          <mxGeometry width="50" height="50" relative="1" as="geometry">
            <mxPoint x="390" y="260" as="sourcePoint" />
            <mxPoint x="440" y="210" as="targetPoint" />
          </mxGeometry>
        </mxCell>
        <mxCell id="6l608WstGpifkdP8yGG4-62" value="" style="endArrow=none;html=1;rounded=0;fontSize=12;exitX=0.5;exitY=0;exitDx=0;exitDy=0;entryX=0.6;entryY=0.988;entryDx=0;entryDy=0;entryPerimeter=0;" edge="1" parent="1" source="6l608WstGpifkdP8yGG4-4" target="6l608WstGpifkdP8yGG4-51">
          <mxGeometry width="50" height="50" relative="1" as="geometry">
            <mxPoint x="390" y="260" as="sourcePoint" />
            <mxPoint x="630" y="330" as="targetPoint" />
          </mxGeometry>
        </mxCell>
        <mxCell id="6l608WstGpifkdP8yGG4-63" value="" style="endArrow=none;html=1;rounded=0;fontSize=12;exitX=0.667;exitY=0;exitDx=0;exitDy=0;exitPerimeter=0;entryX=0.5;entryY=1;entryDx=0;entryDy=0;" edge="1" parent="1" source="6l608WstGpifkdP8yGG4-4" target="6l608WstGpifkdP8yGG4-59">
          <mxGeometry width="50" height="50" relative="1" as="geometry">
            <mxPoint x="390" y="260" as="sourcePoint" />
            <mxPoint x="440" y="210" as="targetPoint" />
          </mxGeometry>
        </mxCell>
        <mxCell id="6l608WstGpifkdP8yGG4-64" value="" style="endArrow=none;html=1;rounded=0;fontSize=12;exitX=0.892;exitY=-0.05;exitDx=0;exitDy=0;exitPerimeter=0;entryX=0.5;entryY=1;entryDx=0;entryDy=0;" edge="1" parent="1" source="6l608WstGpifkdP8yGG4-4" target="6l608WstGpifkdP8yGG4-60">
          <mxGeometry width="50" height="50" relative="1" as="geometry">
            <mxPoint x="390" y="260" as="sourcePoint" />
            <mxPoint x="440" y="210" as="targetPoint" />
          </mxGeometry>
        </mxCell>
      </root>
    </mxGraphModel>
  </diagram>
</mxfile>
